# xmcd
#
# Track frame offsets:
#	150
#	16930
#	34705
#	56827
#	79082
#	100847
#	116338
#	148720
#	179799
#	201127
#	224300
#
# Disc length: 3226 seconds
#
# Revision: 0
# Processed by: cddbd v1.5.2PL0 Copyright (c) Steve Scherf et al.
# Submitted via: dBpowerAMP V4.0
#
DISCID=9a0c980b
DTITLE=Pat Travers  - King Biscuit Flower Hour Prese
DYEAR=1997
DGENRE=Blues Rock
TTITLE0=Tonight
TTITLE1=Killer
TTITLE2=Life In London
TTITLE3=Gettin' Betta'
TTITLE4=Just Try Talkin' (To Those Dudes)
TTITLE5=La La La Love You
TTITLE6=Stevie
TTITLE7=Born Under A Bad Sign
TTITLE8=Ready Or Not
TTITLE9=Hot Shot
TTITLE10=Born A Rocker
EXTD=Pat Travers - King Biscuit Flower Hour Prese
EXTT0=
EXTT1=
EXTT2=
EXTT3=
EXTT4=
EXTT5=
EXTT6=
EXTT7=
EXTT8=
EXTT9=
EXTT10=
PLAYORDER=
